<!DOCTYPE svg PUBLIC "-//W3C//DTD SVG 1.1//EN" "http://www.w3.org/Graphics/SVG/1.1/DTD/svg11.dtd">
<!-- Uploaded to: SVG Repo, www.svgrepo.com, Transformed by: SVG Repo Mixer Tools -->
<svg width="800px" height="800px" viewBox="0 0 24 24" fill="none" xmlns="http://www.w3.org/2000/svg">
<g id="SVGRepo_bgCarrier" stroke-width="0"/>
<g id="SVGRepo_tracerCarrier" stroke-linecap="round" stroke-linejoin="round"/>
<g id="SVGRepo_iconCarrier"> <path d="M11 16C11 16.5523 11.4477 17 12 17C12.5523 17 13 16.5523 13 16H11ZM8.21567 14.3922C8.75496 14.2731 9.09558 13.7394 8.97647 13.2001C8.85735 12.6608 8.32362 12.3202 7.78433 12.4393L8.21567 14.3922ZM16.2157 12.4393C15.6764 12.3202 15.1426 12.6608 15.0235 13.2001C14.9044 13.7394 15.245 14.2731 15.7843 14.3922L16.2157 12.4393ZM15 7C15 8.65685 13.6569 10 12 10V12C14.7614 12 17 9.76142 17 7H15ZM12 10C10.3431 10 9 8.65685 9 7H7C7 9.76142 9.23858 12 12 12V10ZM9 7C9 5.34315 10.3431 4 12 4V2C9.23858 2 7 4.23858 7 7H9ZM12 4C13.6569 4 15 5.34315 15 7H17C17 4.23858 14.7614 2 12 2V4ZM11 11V16H13V11H11ZM20 17C20 17.2269 19.9007 17.5183 19.5683 17.8676C19.2311 18.222 18.6958 18.5866 17.9578 18.9146C16.4844 19.5694 14.3789 20 12 20V22C14.5917 22 16.9861 21.5351 18.7701 20.7422C19.6608 20.3463 20.4435 19.8491 21.0171 19.2463C21.5956 18.6385 22 17.8777 22 17H20ZM12 20C9.62114 20 7.51558 19.5694 6.04218 18.9146C5.30422 18.5866 4.76892 18.222 4.43166 17.8676C4.0993 17.5183 4 17.2269 4 17H2C2 17.8777 2.40438 18.6385 2.98287 19.2463C3.55645 19.8491 4.33918 20.3463 5.2299 20.7422C7.01386 21.5351 9.40829 22 12 22V20ZM4 17C4 16.6824 4.20805 16.2134 4.96356 15.6826C5.70129 15.1644 6.81544 14.7015 8.21567 14.3922L7.78433 12.4393C6.22113 12.7846 4.83528 13.3285 3.81386 14.0461C2.81023 14.7512 2 15.747 2 17H4ZM15.7843 14.3922C17.1846 14.7015 18.2987 15.1644 19.0364 15.6826C19.792 16.2134 20 16.6824 20 17H22C22 15.747 21.1898 14.7512 20.1861 14.0461C19.1647 13.3285 17.7789 12.7846 16.2157 12.4393L15.7843 14.3922Z" fill="#ffffff"/> </g>
</svg>